<mxfile host="65bd71144e">
    <diagram name="Page-1" id="f1b7ffb7-ca1e-a977-7cf5-a751b3c06c05">
        <mxGraphModel dx="1287" dy="712" grid="0" gridSize="10" guides="1" tooltips="1" connect="1" arrows="1" fold="1" page="1" pageScale="1" pageWidth="827" pageHeight="1270" background="#FFFFFF" math="0" shadow="0">
            <root>
                <mxCell id="0"/>
                <mxCell id="1" parent="0"/>
                <mxCell id="cVJXGdQeSUcvY2u7gv_X-103" value="" style="rounded=1;whiteSpace=wrap;html=1;fillColor=#f5f5f5;strokeColor=#67AB9F;gradientColor=none;glass=0;shadow=0;opacity=50;" parent="1" vertex="1">
                    <mxGeometry x="68" y="95" width="652" height="40" as="geometry"/>
                </mxCell>
                <mxCell id="cVJXGdQeSUcvY2u7gv_X-80" value="" style="rounded=1;labelBackgroundColor=none;labelBorderColor=none;noLabel=1;whiteSpace=wrap;html=1;glass=0;fillColor=#F5F5F5;strokeColor=#666666;fontColor=#333333;" parent="1" vertex="1">
                    <mxGeometry x="65" y="179" width="680" height="380" as="geometry"/>
                </mxCell>
                <mxCell id="2" value="ScholarStack" style="text;spacingTop=-5;fontSize=28;fontStyle=3;align=center;horizontal=1;verticalAlign=middle;fontFamily=Georgia;fontColor=#46C7A0;" parent="1" vertex="1">
                    <mxGeometry x="67" y="41.25" width="160" height="35" as="geometry"/>
                </mxCell>
                <mxCell id="5" value="Home" style="text;spacingTop=-5;fontStyle=1;align=center;fontSize=18;fontColor=#2673BF;" parent="1" vertex="1">
                    <mxGeometry x="83" y="100" width="47" height="30" as="geometry"/>
                </mxCell>
                <mxCell id="6" value="Inbox" style="text;spacingTop=-5;align=center;fontStyle=1;fontSize=18;fontColor=#2673BF;" parent="1" vertex="1">
                    <mxGeometry x="643.25" y="100" width="60" height="30" as="geometry"/>
                </mxCell>
                <mxCell id="8" value="Abstract" style="text;spacingTop=-5;fontSize=14;fontStyle=1" parent="1" vertex="1">
                    <mxGeometry x="119.41999999999999" y="269" width="91" height="30" as="geometry"/>
                </mxCell>
                <mxCell id="9" value="Lorem ipsum dolor sit amet, consectetur adipisicing elit, sed do eiusmod tempor incididunt ut labore et dolore magna aliqua. Ut enim ad minim veniam, quis nostrud exercitation ullamco laboris nisi ut aliquip ex ea commodo consequat. Duis aute irure dolor in reprehenderit in voluptate velit esse cillum dolore eu fugiat nulla pariatur. Excepteur sint occaecat cupidatat non proident, sunt in culpa qui officia deserunt mollit anim id est laborum. Lorem ipsum dolor sit amet, consectetur adipisicing elit, sed do eiusmod tempor incididunt ut labore et dolore magna aliqua. Ut enim ad minim veniam, quis nostrud exercitation ullamco laboris nisi ut aliquip ex ea commodo consequat. Duis aute irure dolor in reprehenderit in voluptate velit esse cillum dolore eu fugiat nulla pariatur. Excepteur sint occaecat cupidatat non proident, sunt in culpa qui officia deserunt mollit anim id est laborum." style="text;spacingTop=-5;align=left;verticalAlign=middle;whiteSpace=wrap;" parent="1" vertex="1">
                    <mxGeometry x="119.41999999999999" y="289" width="530" height="150" as="geometry"/>
                </mxCell>
                <mxCell id="11" value="Log out" style="text;spacingTop=-5;align=center;fontStyle=1;fontSize=18;fontColor=#2673BF;" parent="1" vertex="1">
                    <mxGeometry x="637" y="47.5" width="80" height="30" as="geometry"/>
                </mxCell>
                <mxCell id="37" value="" style="verticalLabelPosition=bottom;verticalAlign=top;strokeWidth=1;shape=mxgraph.mockup.misc.rating;strokeColor=#999999;fillColor=#ffff00;emptyFillColor=#ffffff;grade=4;ratingScale=5;ratingStyle=star;fontSize=14;" parent="1" vertex="1">
                    <mxGeometry x="621.9999999999999" y="504" width="67.5" height="10" as="geometry"/>
                </mxCell>
                <mxCell id="38" value="Rate this article" style="text;spacingTop=-5;fontSize=14;align=center;fontColor=#67AB9F;fontStyle=1" parent="1" vertex="1">
                    <mxGeometry x="475" y="494" width="111" height="20" as="geometry"/>
                </mxCell>
                <mxCell id="47" value="Keywords: Keyword 1, Keyword 2, Keyword 3" style="text;spacingTop=-5;fontSize=14;align=center;fontColor=#67AB9F;fontStyle=1" parent="1" vertex="1">
                    <mxGeometry x="114.71" y="470" width="290" height="20" as="geometry"/>
                </mxCell>
                <mxCell id="cVJXGdQeSUcvY2u7gv_X-63" value="Search about a resource" style="text;spacingTop=-5;align=center;fontStyle=0;fontSize=18;fontColor=#B3B3B3;textOpacity=90;fontFamily=Times New Roman;" parent="1" vertex="1">
                    <mxGeometry x="304.15" y="45" width="252.5" height="27.5" as="geometry"/>
                </mxCell>
                <mxCell id="cVJXGdQeSUcvY2u7gv_X-66" value="Your Profile" style="text;spacingTop=-5;align=center;fontStyle=1;fontSize=18;fontColor=#2673BF;" parent="1" vertex="1">
                    <mxGeometry x="473.25" y="100" width="120" height="30" as="geometry"/>
                </mxCell>
                <mxCell id="cVJXGdQeSUcvY2u7gv_X-67" value="Community" style="text;spacingTop=-5;align=center;fontStyle=1;fontSize=18;fontColor=#2673BF;" parent="1" vertex="1">
                    <mxGeometry x="180" y="100" width="130" height="30" as="geometry"/>
                </mxCell>
                <mxCell id="cVJXGdQeSUcvY2u7gv_X-68" value="About Us" style="text;spacingTop=-5;align=center;fontStyle=1;fontSize=18;fontColor=#2673BF;" parent="1" vertex="1">
                    <mxGeometry x="318.5" y="100" width="130" height="30" as="geometry"/>
                </mxCell>
                <mxCell id="cVJXGdQeSUcvY2u7gv_X-69" value="" style="line;strokeWidth=1" parent="1" vertex="1">
                    <mxGeometry x="348" y="65" width="169" height="10" as="geometry"/>
                </mxCell>
                <mxCell id="cVJXGdQeSUcvY2u7gv_X-70" value="" style="sketch=0;html=1;aspect=fixed;strokeColor=none;shadow=0;fillColor=#3B8DF1;verticalAlign=top;labelPosition=center;verticalLabelPosition=bottom;shape=mxgraph.gcp2.search" parent="1" vertex="1">
                    <mxGeometry x="564.15" y="55" width="14.85" height="15" as="geometry"/>
                </mxCell>
                <mxCell id="cVJXGdQeSUcvY2u7gv_X-75" value="Resource Title" style="text;spacingTop=-5;fontSize=18;fontStyle=1;align=center;fontColor=#3399FF;" parent="1" vertex="1">
                    <mxGeometry x="340" y="189" width="130" height="30" as="geometry"/>
                </mxCell>
                <mxCell id="cVJXGdQeSUcvY2u7gv_X-78" value="Authors: John Doe, John Doe, John Doe" style="text;spacingTop=-5;fontSize=14;fontStyle=1;fontColor=#67AB9F;" parent="1" vertex="1">
                    <mxGeometry x="119.41999999999999" y="229" width="280.58" height="20" as="geometry"/>
                </mxCell>
                <mxCell id="cVJXGdQeSUcvY2u7gv_X-79" value="Date of Publication: DD/MM/YYYY" style="text;spacingTop=-5;fontSize=14;fontStyle=1;fontColor=#67AB9F;" parent="1" vertex="1">
                    <mxGeometry x="473.25" y="467" width="230" height="20" as="geometry"/>
                </mxCell>
                <mxCell id="cVJXGdQeSUcvY2u7gv_X-81" value="Tags: Tag 1, Tag 2, Tag3" style="text;spacingTop=-5;fontSize=14;align=center;fontColor=#67AB9F;fontStyle=1" parent="1" vertex="1">
                    <mxGeometry x="108" y="499" width="162" height="20" as="geometry"/>
                </mxCell>
                <mxCell id="cVJXGdQeSUcvY2u7gv_X-105" value="&lt;b&gt;&lt;i&gt;Copyrights by Team #9&lt;/i&gt;&lt;/b&gt;" style="rounded=0;whiteSpace=wrap;html=1;fillColor=#f5f5f5;gradientColor=#b3b3b3;strokeColor=#666666;" parent="1" vertex="1">
                    <mxGeometry x="73" y="1159" width="672" height="30" as="geometry"/>
                </mxCell>
                <mxCell id="Mv5SV2gspvucKvMU9SuZ-48" value="" style="rounded=1;whiteSpace=wrap;html=1;fillColor=#F5F5F5;" parent="1" vertex="1">
                    <mxGeometry x="65" y="573" width="669" height="204" as="geometry"/>
                </mxCell>
                <mxCell id="Mv5SV2gspvucKvMU9SuZ-51" value="Similar Resources" style="text;html=1;strokeColor=none;fillColor=none;align=center;verticalAlign=middle;whiteSpace=wrap;rounded=0;fontStyle=1;fontSize=16;fontColor=#49757A;" parent="1" vertex="1">
                    <mxGeometry x="88" y="586" width="159" height="30" as="geometry"/>
                </mxCell>
                <mxCell id="Mv5SV2gspvucKvMU9SuZ-52" value="" style="shape=waypoint;sketch=0;fillStyle=solid;size=6;pointerEvents=1;points=[];fillColor=none;resizable=0;rotatable=0;perimeter=centerPerimeter;snapToPoint=1;" parent="1" vertex="1">
                    <mxGeometry x="99.42000000000002" y="635" width="20" height="20" as="geometry"/>
                </mxCell>
                <mxCell id="Mv5SV2gspvucKvMU9SuZ-53" value="Resource by John Doe, 2023" style="text;html=1;strokeColor=none;fillColor=none;align=center;verticalAlign=middle;whiteSpace=wrap;rounded=0;" parent="1" vertex="1">
                    <mxGeometry x="114" y="630" width="209" height="30" as="geometry"/>
                </mxCell>
                <mxCell id="Mv5SV2gspvucKvMU9SuZ-54" value="" style="shape=waypoint;sketch=0;fillStyle=solid;size=6;pointerEvents=1;points=[];fillColor=none;resizable=0;rotatable=0;perimeter=centerPerimeter;snapToPoint=1;" parent="1" vertex="1">
                    <mxGeometry x="99.42000000000002" y="671" width="20" height="20" as="geometry"/>
                </mxCell>
                <mxCell id="Mv5SV2gspvucKvMU9SuZ-55" value="Resource by John Doe, 2023" style="text;html=1;strokeColor=none;fillColor=none;align=center;verticalAlign=middle;whiteSpace=wrap;rounded=0;" parent="1" vertex="1">
                    <mxGeometry x="114" y="666" width="209" height="30" as="geometry"/>
                </mxCell>
                <mxCell id="Mv5SV2gspvucKvMU9SuZ-56" value="" style="shape=waypoint;sketch=0;fillStyle=solid;size=6;pointerEvents=1;points=[];fillColor=none;resizable=0;rotatable=0;perimeter=centerPerimeter;snapToPoint=1;" parent="1" vertex="1">
                    <mxGeometry x="99.42000000000002" y="706" width="20" height="20" as="geometry"/>
                </mxCell>
                <mxCell id="Mv5SV2gspvucKvMU9SuZ-57" value="Resource by John Doe, 2023" style="text;html=1;strokeColor=none;fillColor=none;align=center;verticalAlign=middle;whiteSpace=wrap;rounded=0;" parent="1" vertex="1">
                    <mxGeometry x="114" y="701" width="209" height="30" as="geometry"/>
                </mxCell>
                <mxCell id="Mv5SV2gspvucKvMU9SuZ-58" value="" style="verticalLabelPosition=bottom;verticalAlign=top;strokeWidth=1;shape=mxgraph.mockup.misc.rating;strokeColor=#999999;fillColor=#ffff00;emptyFillColor=#ffffff;grade=4;ratingScale=5;ratingStyle=star;fontSize=14;" parent="1" vertex="1">
                    <mxGeometry x="627.7499999999999" y="640" width="67.5" height="10" as="geometry"/>
                </mxCell>
                <mxCell id="Mv5SV2gspvucKvMU9SuZ-59" value="Rate this article" style="text;spacingTop=-5;fontSize=14;align=center;fontColor=#67AB9F;fontStyle=1" parent="1" vertex="1">
                    <mxGeometry x="477" y="635" width="111" height="20" as="geometry"/>
                </mxCell>
                <mxCell id="Mv5SV2gspvucKvMU9SuZ-60" value="" style="verticalLabelPosition=bottom;verticalAlign=top;strokeWidth=1;shape=mxgraph.mockup.misc.rating;strokeColor=#999999;fillColor=#ffff00;emptyFillColor=#ffffff;grade=4;ratingScale=5;ratingStyle=star;fontSize=14;" parent="1" vertex="1">
                    <mxGeometry x="629.8799999999999" y="676" width="67.5" height="10" as="geometry"/>
                </mxCell>
                <mxCell id="Mv5SV2gspvucKvMU9SuZ-61" value="Rate this article" style="text;spacingTop=-5;fontSize=14;align=center;fontColor=#67AB9F;fontStyle=1" parent="1" vertex="1">
                    <mxGeometry x="479.13" y="671" width="111" height="20" as="geometry"/>
                </mxCell>
                <mxCell id="Mv5SV2gspvucKvMU9SuZ-62" value="" style="verticalLabelPosition=bottom;verticalAlign=top;strokeWidth=1;shape=mxgraph.mockup.misc.rating;strokeColor=#999999;fillColor=#ffff00;emptyFillColor=#ffffff;grade=4;ratingScale=5;ratingStyle=star;fontSize=14;" parent="1" vertex="1">
                    <mxGeometry x="627.7499999999999" y="713" width="67.5" height="10" as="geometry"/>
                </mxCell>
                <mxCell id="Mv5SV2gspvucKvMU9SuZ-63" value="Rate this article" style="text;spacingTop=-5;fontSize=14;align=center;fontColor=#67AB9F;fontStyle=1" parent="1" vertex="1">
                    <mxGeometry x="477" y="708" width="111" height="20" as="geometry"/>
                </mxCell>
                <mxCell id="Mv5SV2gspvucKvMU9SuZ-64" value="&lt;span style=&quot;font-family: Helvetica; font-size: 14px; font-style: normal; font-variant-ligatures: normal; font-variant-caps: normal; font-weight: 700; letter-spacing: normal; orphans: 2; text-align: center; text-indent: 0px; text-transform: none; widows: 2; word-spacing: 0px; -webkit-text-stroke-width: 0px; background-color: rgb(251, 251, 251); text-decoration-thickness: initial; text-decoration-style: initial; text-decoration-color: initial; float: none; display: inline !important;&quot;&gt;Visit PubMed&lt;/span&gt;" style="text;whiteSpace=wrap;html=1;fontColor=#007FFF;" parent="1" vertex="1">
                    <mxGeometry x="475" y="525" width="104" height="28" as="geometry"/>
                </mxCell>
                <mxCell id="Mv5SV2gspvucKvMU9SuZ-65" value="&lt;span style=&quot;font-family: Helvetica; font-size: 14px; font-style: normal; font-variant-ligatures: normal; font-variant-caps: normal; font-weight: 700; letter-spacing: normal; orphans: 2; text-align: center; text-indent: 0px; text-transform: none; widows: 2; word-spacing: 0px; -webkit-text-stroke-width: 0px; background-color: rgb(251, 251, 251); text-decoration-thickness: initial; text-decoration-style: initial; text-decoration-color: initial; float: none; display: inline !important;&quot;&gt;Visit Google Scholar&lt;/span&gt;" style="text;whiteSpace=wrap;html=1;fontColor=#007FFF;" parent="1" vertex="1">
                    <mxGeometry x="108" y="525" width="147" height="28" as="geometry"/>
                </mxCell>
                <mxCell id="Mv5SV2gspvucKvMU9SuZ-66" value="&lt;span style=&quot;font-family: Helvetica; font-size: 14px; font-style: normal; font-variant-ligatures: normal; font-variant-caps: normal; letter-spacing: normal; orphans: 2; text-align: center; text-indent: 0px; text-transform: none; widows: 2; word-spacing: 0px; -webkit-text-stroke-width: 0px; background-color: rgb(251, 251, 251); text-decoration-thickness: initial; text-decoration-style: initial; text-decoration-color: initial; float: none; display: inline !important;&quot;&gt;View More&lt;/span&gt;" style="text;whiteSpace=wrap;html=1;fontColor=#000000;fontStyle=1" parent="1" vertex="1">
                    <mxGeometry x="371" y="742" width="85" height="28" as="geometry"/>
                </mxCell>
                <mxCell id="Mv5SV2gspvucKvMU9SuZ-67" value="&lt;span style=&quot;font-family: Helvetica; font-size: 14px; font-style: normal; font-variant-ligatures: normal; font-variant-caps: normal; letter-spacing: normal; orphans: 2; text-align: center; text-indent: 0px; text-transform: none; widows: 2; word-spacing: 0px; -webkit-text-stroke-width: 0px; background-color: rgb(251, 251, 251); text-decoration-thickness: initial; text-decoration-style: initial; text-decoration-color: initial; float: none; display: inline !important;&quot;&gt;Read More&lt;/span&gt;" style="text;whiteSpace=wrap;html=1;fontColor=#000000;fontStyle=1" parent="1" vertex="1">
                    <mxGeometry x="119.42" y="432" width="85" height="28" as="geometry"/>
                </mxCell>
                <mxCell id="Mv5SV2gspvucKvMU9SuZ-68" value="" style="rounded=1;whiteSpace=wrap;html=1;fillColor=#F5F5F5;" parent="1" vertex="1">
                    <mxGeometry x="68" y="792" width="678" height="344" as="geometry"/>
                </mxCell>
                <mxCell id="Mv5SV2gspvucKvMU9SuZ-69" value="&lt;h1&gt;Amazing article!&lt;/h1&gt;&lt;p&gt;Lorem ipsum dolor sit amet, consectetur adipisicing elit, sed do eiusmod tempor incididunt ut labore et dolore magna aliqua.&lt;/p&gt;&lt;p&gt;DD/MM/YY, by &lt;u&gt;John Doe&lt;/u&gt;&lt;/p&gt;" style="text;html=1;strokeColor=none;fillColor=none;spacing=5;spacingTop=-20;whiteSpace=wrap;overflow=hidden;rounded=0;" parent="1" vertex="1">
                    <mxGeometry x="103" y="868" width="507" height="128" as="geometry"/>
                </mxCell>
                <mxCell id="Mv5SV2gspvucKvMU9SuZ-71" value="&lt;h1&gt;Resource Comments&lt;/h1&gt;" style="text;html=1;strokeColor=none;fillColor=none;spacing=5;spacingTop=-20;whiteSpace=wrap;overflow=hidden;rounded=0;fontColor=#49757A;" parent="1" vertex="1">
                    <mxGeometry x="283" y="812" width="261" height="40" as="geometry"/>
                </mxCell>
                <mxCell id="Mv5SV2gspvucKvMU9SuZ-72" value="&lt;h1&gt;Amazing article!&lt;/h1&gt;&lt;p&gt;Lorem ipsum dolor sit amet, consectetur adipisicing elit, sed do eiusmod tempor incididunt ut labore et dolore magna aliqua.&lt;/p&gt;&lt;p&gt;DD/MM/YY, by &lt;u&gt;John Doe&lt;/u&gt;&lt;/p&gt;" style="text;html=1;strokeColor=none;fillColor=none;spacing=5;spacingTop=-20;whiteSpace=wrap;overflow=hidden;rounded=0;" parent="1" vertex="1">
                    <mxGeometry x="99.42" y="994" width="507" height="128" as="geometry"/>
                </mxCell>
            </root>
        </mxGraphModel>
    </diagram>
</mxfile>